<svg xmlns="http://www.w3.org/2000/svg" data-name="Layer 1" viewBox="0 0 64 64"><polygon fill="#1e252d" points="16.1 47.89 35.42 36.12 27.88 28.58 16.1 47.89"/><polygon fill="#1e252d" points="36.12 35.41 47.89 16.1 28.58 27.87 36.12 35.41"/><path fill="#1e252d" d="M32,0A32,32,0,1,0,64,32,32,32,0,0,0,32,0Zm0,58.9A26.91,26.91,0,1,1,58.91,32,26.9,26.9,0,0,1,32,58.9Z"/><path fill="#1e252d" d="M32 12.16a2 2 0 1 0-2-2A2 2 0 0 0 32 12.16zM10.18 30a2 2 0 1 0 2 2A2 2 0 0 0 10.18 30zM32 51.84a2 2 0 1 0 2 2A2 2 0 0 0 32 51.84zM53.81 30a2 2 0 1 0 2 2A2 2 0 0 0 53.81 30z"/></svg>